# xmcd
#
# Track frame offsets:
# 150
# 19227
# 35026
# 53547
# 70395
# 90058
# 112801
# 132388
# 154939
# 181996
# 198589
# 221079
# 243216
# 244596
# 257139
# 272717
#
# Disc length: 3843 seconds
#
# Revision: 1
# Processed by: cddbd v1.5.1PL0 Copyright (c) Steve Scherf et al.
# Submitted via: CedeCatalogueitor 2.6.0.6 http://personales.ya.com/cdcatalogueitor
#
DISCID=dd0f0110
DTITLE=Beyonce - Dangerously In Love
DYEAR=1900
DGENRE=
TTITLE0=Crazy In Love
TTITLE1=Naugthy Girl
TTITLE2=Baby Boy
TTITLE3=Hip Hop Star
TTITLE4=Be With You
TTITLE5=Me, Myself And I
TTITLE6=Yes
TTITLE7=Sings
TTITLE8=Speechlees
TTITLE9=That´s How You Like
TTITLE10=The Closer I Get To You
TTITLE11=Dangerously In Love 
TTITLE12=Beyonce Interlude
TTITLE13=Gift From Virgo
TTITLE14=Work It Out
TTITLE15=Bonnie and Clyde 03
EXTD=
EXTT0=
EXTT1=
EXTT2=
EXTT3=
EXTT4=
EXTT5=
EXTT6=
EXTT7=
EXTT8=
EXTT9=
EXTT10=
EXTT11=
EXTT12=
EXTT13=
EXTT14=
EXTT15=
PLAYORDER=
